<?xml version="1.0" encoding="utf-8"?>
<!-- Generator: Adobe Illustrator 18.1.1, SVG Export Plug-In . SVG Version: 6.00 Build 0)  -->
<svg version="1.1" id="Layer_1" xmlns="http://www.w3.org/2000/svg" xmlns:xlink="http://www.w3.org/1999/xlink" x="0px" y="0px"
	 viewBox="0 0 34 29.8" enable-background="new 0 0 34 29.8" xml:space="preserve">
<g opacity="0.3">
	<path d="M14.5,29.8c0.1-0.6,0.3-1.2,0.3-1.8c0-1.8,0-3.6,0-5.4c-0.1,0-0.1,0-0.2-0.1c-0.1,0.2-0.2,0.4-0.2,0.6c0,1.4,0,2.8,0,4.1
		c0,1.8-0.7,2.5-2.6,2.4c1-1.6,0.3-3.4,0.6-5.3c-0.9,0-1.7,0-2.5,0c-1.1-0.1-2.1-0.6-2.7-1.6c-0.4-0.5-0.6-1.1-1-1.6
		c-0.6-0.8-1.2-1.6-1.7-2.4c0.4-0.1,1.1,0,1.7,0.5c0.6,0.4,1.2,0.9,1.7,1.5C9,22,10.5,21.9,12,21.9c0.1,0,0.2-0.2,0.3-0.3
		c0.4-0.7,0.7-1.4,1.1-2.1c-0.5-0.1-1.2-0.2-1.9-0.4c-2.2-0.6-4.1-1.6-5.3-3.5c-0.1-0.2-0.4-0.3-0.6-0.3c-1.5,0.1-3.1,0.3-4.6,0.4
		c-0.2,0-0.3,0-0.5,0c0-0.1,0-0.2,0-0.3C1.3,15.2,2.2,15.1,3,15c0.9-0.1,1.8-0.1,2.7-0.3c-0.2-0.1-0.4-0.3-0.6-0.3
		c-1.4,0-2.8,0-4.1,0c-0.3,0-0.7,0-1,0.1c0-0.1,0-0.1-0.1-0.2c0.2-0.1,0.4-0.2,0.6-0.2c1.5,0,3.1,0,4.6,0c0.1,0,0.1,0,0.1,0
		C5.2,12.6,5,11.3,5,9.9c0-1.6,0.5-3.1,1.6-4.3C7,5.1,6.9,4.7,6.9,4.3C6.6,2.8,6.7,1.4,7.2,0c1.7,0,3.2,0.6,4.6,1.4
		c0.5,0.3,0.9,0.4,1.4,0.3c2.5-0.4,5-0.4,7.5,0c0.3,0,0.6-0.1,0.8-0.2c1.5-0.9,3-1.4,4.7-1.6c0.5,1.4,0.6,2.8,0.5,4.3
		c0,0.2,0,0.4,0.1,0.6c2,2.7,2.4,5.7,1.7,8.9c0,0.1,0,0.1,0,0.2c1.8-0.1,3.7-0.2,5.5,0.1c0,0.1,0,0.2,0,0.2c-0.3,0-0.6,0-0.8,0
		c-1.5,0-2.9,0-4.4,0c-0.2,0-0.4,0.1-0.6,0.3c1.8,0.1,3.6,0.2,5.4,0.7c0,0.1,0,0.1,0,0.2c-0.1,0-0.3,0.1-0.4,0
		c-1.6-0.1-3.2-0.3-4.7-0.4c-0.2,0-0.5,0.1-0.6,0.3c-1.4,2.4-3.6,3.4-6.1,3.9c-0.2,0.1-0.5,0.1-0.8,0.2c0.1,0.2,0.2,0.4,0.3,0.5
		c0.4,0.6,0.7,1.3,0.7,2.1c0,1.7,0,3.5,0,5.2c0,1,0.1,1.2,0.7,2c-1.4,0.5-2.7-0.4-2.7-1.9c0-1.4,0-2.9,0-4.3c0-0.2-0.1-0.5-0.2-0.7
		c-0.5,1.1-0.2,6.5,0.3,7.1c-1.7,0.3-2.6-0.7-2.6-1.8c0.1-1.6,0-3.2,0-4.8c0-0.2-0.1-0.4-0.2-0.5C17.1,22.6,17,22.8,17,23
		c0,1.7,0,3.4,0,5c0,1-0.3,1.4-1.3,1.6C15.2,29.8,14.8,29.8,14.5,29.8z"/>
</g>
</svg>
