<?xml version="1.0" encoding="utf-8"?>
<!-- Generator: Adobe Illustrator 18.1.1, SVG Export Plug-In . SVG Version: 6.00 Build 0)  -->
<svg version="1.1" id="Layer_1" xmlns="http://www.w3.org/2000/svg" xmlns:xlink="http://www.w3.org/1999/xlink" x="0px" y="0px"
	 viewBox="0 0 34 30.7" enable-background="new 0 0 34 30.7" xml:space="preserve">
<g opacity="0.3">
	<path d="M9.4,17.2c-0.1-0.9-0.2-1.7-0.3-2.5c-0.7-0.2-1.4-0.3-2.1-0.5c-2.7-0.9-4.4-2.8-4.9-5.6C1.6,6,2.7,3.9,4.6,2.2
		C6.3,0.8,8.3,0.1,10.5,0c2.8,0,5.5,0,8.3,0c0.4,0,0.9,0.3,1.3,0.5c-0.3,0.4-0.4,1-0.8,1.3c-0.6,0.5-1.4,1-1.9,1.3
		c0.3,1.6,0.8,3.2,0.8,4.8c0,2.2-1.4,3.7-3,5c-1.6,1.3-1.6,1.8-0.1,3.2c0.6,0.6,1.3,1.1,2,1.6c3.7,3.4,3.2,8.8-1.2,11.2
		c-4.5,2.4-9.1,2.1-13.4-0.4c-2.9-1.6-3.3-4.8-1.4-7.4C3.2,18.4,6.1,17.6,9.4,17.2z M10.3,27.8c1.2-0.3,2.4-0.4,3.5-0.9
		c1.9-0.8,2.7-3.4,1.4-4.8c-1.3-1.5-2.8-2.6-5-2.5c-2.9,0.1-5.5,1.9-5.5,4C4.7,25.9,7.1,27.6,10.3,27.8z M13.6,8.4
		c-0.1-2-0.8-3.9-2.7-5.1C9.1,2.2,7.3,3,6.8,5c-0.5,2,0,3.8,1.1,5.4c1,1.5,2.5,2.1,3.7,1.7C12.8,11.8,13.6,10.3,13.6,8.4z"/>
	<path d="M28.2,15.3c0,1.7,0,3.1,0,4.5c0,1.1-0.5,1.4-1.5,1.4c-1,0-1.5-0.3-1.4-1.4c0.1-1.4,0-2.8,0-4.4c-1.5,0-3,0-4.4,0
		c-1.2,0.1-1.4-0.5-1.4-1.6c0-1.1,0.4-1.4,1.4-1.4c1.4,0.1,2.8,0,4.4,0c0-1.6,0-3.1,0-4.6c0-1.1,0.5-1.3,1.4-1.3
		c0.8,0,1.5,0.1,1.5,1.2c0,1.5,0,3,0,4.7c1.6,0,3.1,0,4.5,0c1,0,1.3,0.4,1.3,1.4c0,0.9-0.1,1.6-1.3,1.6
		C31.3,15.3,29.8,15.3,28.2,15.3z"/>
</g>
</svg>
