<?xml version="1.0" encoding="utf-8"?>
<!-- Generator: Adobe Illustrator 18.1.1, SVG Export Plug-In . SVG Version: 6.00 Build 0)  -->
<svg version="1.1" id="Layer_1" xmlns="http://www.w3.org/2000/svg" xmlns:xlink="http://www.w3.org/1999/xlink" x="0px" y="0px"
	 viewBox="0 0 30.5 29.8" enable-background="new 0 0 30.5 29.8" xml:space="preserve">
<g opacity="0.3">
	<path display="none" fill="#FFFFFF" d="M32.3,32c-11.3,0-22.7,0-34,0c0-11.3,0-22.7,0-34c11.3,0,22.7,0,34,0
		C32.3,9.3,32.3,20.6,32.3,32z M24.5,29.8c2,0,4,0,6,0c0-0.2,0-0.3,0-0.5c0-4.2,0-8.5,0-12.7c0-0.6,0-1.1-0.1-1.7
		c-0.2-2-1.2-3.5-3.1-4.4c-1.1-0.5-2.3-0.7-3.6-0.7c-2,0-3.7,0.7-5.2,1.9c-0.4,0.3-0.8,0.7-1.2,1c0-1.1,0-2.2,0-3.2
		c-2,0-3.9,0-5.9,0c0,6.7,0,13.4,0,20.1c2.1,0,4.1,0,6.1,0c0-0.2,0-0.3,0-0.5c0-3.4,0-6.9,0-10.3c0-0.4,0-0.9,0.1-1.3
		c0.1-1.3,0.8-2,1.9-2.2c0.7-0.1,1.5-0.1,2.2-0.1c1.4,0.1,2.2,0.9,2.5,2.2c0.1,0.5,0.1,1,0.1,1.5c0,3.4,0,6.8,0,10.1
		C24.5,29.6,24.5,29.7,24.5,29.8z M0.3,9.7c0,6.8,0,13.5,0,20.1c2.1,0,4.1,0,6.1,0c0-6.8,0-13.5,0-20.1C4.3,9.7,2.3,9.7,0.3,9.7z
		 M3.4,0C1.5,0,0,1.5,0,3.3c0,1.9,1.5,3.4,3.4,3.4c1.9,0,3.4-1.5,3.4-3.4C6.8,1.5,5.3,0,3.4,0z"/>
	<path d="M24.5,29.8c0-0.1,0-0.3,0-0.4c0-3.4,0-6.8,0-10.1c0-0.5,0-1-0.1-1.5c-0.3-1.4-1.1-2.1-2.5-2.2c-0.7-0.1-1.5,0-2.2,0.1
		c-1.2,0.1-1.8,0.9-1.9,2.2c0,0.4-0.1,0.9-0.1,1.3c0,3.4,0,6.9,0,10.3c0,0.1,0,0.3,0,0.5c-2.1,0-4.1,0-6.1,0c0-6.7,0-13.4,0-20.1
		c1.9,0,3.9,0,5.9,0c0,1,0,2.1,0,3.2c0.4-0.4,0.8-0.7,1.2-1c1.5-1.3,3.2-1.9,5.2-1.9c1.2,0,2.4,0.2,3.6,0.7c1.9,0.8,2.9,2.4,3.1,4.4
		c0.1,0.6,0.1,1.1,0.1,1.7c0,4.2,0,8.5,0,12.7c0,0.1,0,0.3,0,0.5C28.5,29.8,26.5,29.8,24.5,29.8z"/>
	<path d="M0.3,9.7c2,0,4.1,0,6.1,0c0,6.7,0,13.4,0,20.1c-2,0-4.1,0-6.1,0C0.3,23.1,0.3,16.4,0.3,9.7z"/>
	<path d="M3.4,0c1.9,0,3.4,1.5,3.4,3.4c0,1.9-1.5,3.4-3.4,3.4C1.5,6.7,0,5.2,0,3.3C0,1.5,1.5,0,3.4,0z"/>
</g>
</svg>
