<?xml version="1.0"?><svg xmlns="http://www.w3.org/2000/svg" viewBox="0 0 24 24">
    <g opacity="0.3">
    <path d="M 15.0625 4.21875 C 14.580156 4.2671777 14.145625 4.543125 13.875 4.96875 L 11.09375 9.375 C 10.62475 8.645 10.262 8.07975 10 7.71875 C 9.66 7.24875 9.439 7.071 9.25 7 L 4.15625 4.5 C 3.66225 4.26 3.14175 4.26425 2.71875 4.53125 C 2.29975 4.79325 2.0625 5.24325 2.0625 5.78125 L 2.0625 16.90625 C 2.0625 17.58225 2.51 18.2645 3.125 18.5625 L 7.78125 20.84375 C 8.48025 21.10675 9.04375 21.0095 9.34375 20.8125 C 9.78575 20.5215 10.03125 20.0215 10.03125 19.4375 L 10.03125 16.125 L 14.3125 18.1875 L 19.5625 20.75 C 19.9995 20.94 20.7745 20.99475 21.3125 20.71875 C 21.7745 20.48175 22 19.96225 22 19.40625 C 22 19.40625 22.004 10.007 22 8.25 C 21.998 7.879 21.81325 7.40825 21.15625 7.03125 C 20.43925 6.62025 18.9915 5.881 15.9375 4.375 C 15.664125 4.24225 15.351906 4.1896934 15.0625 4.21875 z M 15.375 6.34375 C 16.706 7.00175 18.46925 7.87325 19.53125 8.40625 L 15 15.53125 L 12.28125 11.21875 L 15.375 6.34375 z M 4.0625 6.65625 L 8 8.59375 L 8.03125 18.75 L 4.0625 16.8125 L 4.0625 6.65625 z M 10 11.40625 C 10.065 11.50825 12.28125 14.96875 12.28125 14.96875 L 10 13.875 L 10 11.40625 z M 20 11.40625 L 20 18.71875 L 16.4375 17 L 20 11.40625 z"/>
    </g>
</svg>
