<?xml version="1.0" encoding="utf-8"?>
<!-- Generator: Adobe Illustrator 18.1.1, SVG Export Plug-In . SVG Version: 6.00 Build 0)  -->
<svg version="1.1" id="Layer_1" xmlns="http://www.w3.org/2000/svg" xmlns:xlink="http://www.w3.org/1999/xlink" x="0px" y="0px"
	 viewBox="0 0 34 27.8" enable-background="new 0 0 34 27.8" xml:space="preserve">
<path opacity="0.3" d="M0,24.7c3.7,0.3,7.1-0.6,10.2-2.9c-2.1-0.2-3.8-1-5.1-2.5c-0.6-0.7-1-1.5-1.3-2.4c1,0,1.9,0.1,2.9-0.1
	c-3.4-1.1-5.2-3.4-5.4-7c0.9,0.4,1.9,0.7,2.9,0.8C2.8,9.5,1.8,8.1,1.5,6.3c-0.4-1.7-0.1-3.4,0.7-5C2.8,2,3.5,2.6,4.1,3.2
	C7.2,6.1,10.8,7.8,15,8.4c0.5,0.1,1.1,0.1,1.6,0.2c0-0.6,0-1.2,0-1.7c-0.1-3.1,2.3-6.1,5.6-6.8c2.2-0.4,4.3,0.1,6,1.6
	c0.4,0.3,0.7,0.5,1.2,0.3c1-0.4,2-0.8,3-1.2c0.2-0.1,0.4-0.2,0.7-0.3c-0.6,1.6-1.5,2.7-2.7,3.7c1.2-0.1,2.4-0.5,3.6-0.8
	c-0.1,0.1-0.1,0.2-0.2,0.3c-0.8,1.1-1.7,2-2.8,2.9c-0.2,0.2-0.3,0.4-0.4,0.7c-0.1,1.3-0.1,2.7-0.4,4c-1.2,5.9-4.2,10.6-9.4,13.8
	c-2.2,1.3-4.6,2.2-7.2,2.5c-2.8,0.3-5.5,0.3-8.2-0.5c-1.8-0.5-3.5-1.3-5.1-2.2c-0.1-0.1-0.2-0.1-0.3-0.2C0,24.8,0,24.7,0,24.7z"/>
</svg>
